<svg width="512" height="512" viewBox="0 0 512 512" fill="none" xmlns="http://www.w3.org/2000/svg">
<g clip-path="url(#clip0_7107_12716)">
<path fill-rule="evenodd" clip-rule="evenodd" d="M159.877 142.281C170.898 149.217 174.209 163.776 167.274 174.799L50.691 360.083C43.7555 371.105 29.1993 374.418 18.1787 367.481C7.15811 360.544 3.84646 345.986 10.7819 334.963L127.365 149.679C134.3 138.656 148.857 135.344 159.877 142.281Z" fill="url(#paint0_linear_7107_12716)"/>
<path fill-rule="evenodd" clip-rule="evenodd" d="M213.086 238.849C224.065 245.852 227.288 260.43 220.286 271.411L160.529 365.117C153.527 376.097 138.951 379.321 127.973 372.318C116.994 365.315 113.771 350.736 120.773 339.756L180.53 246.049C187.532 235.069 202.108 231.845 213.086 238.849Z" fill="url(#paint1_linear_7107_12716)"/>
<path fill-rule="evenodd" clip-rule="evenodd" d="M270.61 331.96C280.923 339.91 282.84 354.717 274.892 365.033L274.635 365.366C266.686 375.681 251.882 377.599 241.568 369.648C231.254 361.698 229.337 346.891 237.286 336.576L237.543 336.243C245.491 325.927 260.296 324.01 270.61 331.96Z" fill="url(#paint2_linear_7107_12716)"/>
<path fill-rule="evenodd" clip-rule="evenodd" d="M352.348 369.716C341.328 362.78 338.016 348.221 344.952 337.198L461.535 151.914C468.47 140.892 483.026 137.58 494.047 144.516C505.067 151.453 508.379 166.012 501.444 177.034L384.861 362.318C377.925 373.341 363.369 376.653 352.348 369.716Z" fill="url(#paint3_linear_7107_12716)"/>
<path fill-rule="evenodd" clip-rule="evenodd" d="M299.139 273.149C288.161 266.145 284.938 251.567 291.94 240.587L351.696 146.88C358.698 135.9 373.274 132.676 384.253 139.679C395.231 146.682 398.454 161.261 391.452 172.241L331.696 265.948C324.694 276.928 310.118 280.152 299.139 273.149Z" fill="url(#paint4_linear_7107_12716)"/>
<path fill-rule="evenodd" clip-rule="evenodd" d="M241.616 180.036C231.302 172.086 229.385 157.279 237.334 146.963L237.591 146.63C245.539 136.315 260.344 134.398 270.657 142.348C280.971 150.298 282.888 165.105 274.94 175.42L274.683 175.753C266.734 186.069 251.93 187.986 241.616 180.036Z" fill="url(#paint5_linear_7107_12716)"/>
</g>
<defs>
<linearGradient id="paint0_linear_7107_12716" x1="7.19093" y1="255.998" x2="505.079" y2="255.998" gradientUnits="userSpaceOnUse">
<stop stop-color="#FBA52C"/>
<stop offset="1" stop-color="#EF335D"/>
</linearGradient>
<linearGradient id="paint1_linear_7107_12716" x1="7.19093" y1="255.998" x2="505.079" y2="255.998" gradientUnits="userSpaceOnUse">
<stop stop-color="#FBA52C"/>
<stop offset="1" stop-color="#EF335D"/>
</linearGradient>
<linearGradient id="paint2_linear_7107_12716" x1="7.19093" y1="255.998" x2="505.079" y2="255.998" gradientUnits="userSpaceOnUse">
<stop stop-color="#FBA52C"/>
<stop offset="1" stop-color="#EF335D"/>
</linearGradient>
<linearGradient id="paint3_linear_7107_12716" x1="7.19093" y1="255.998" x2="505.079" y2="255.998" gradientUnits="userSpaceOnUse">
<stop stop-color="#FBA52C"/>
<stop offset="1" stop-color="#EF335D"/>
</linearGradient>
<linearGradient id="paint4_linear_7107_12716" x1="7.19093" y1="255.998" x2="505.079" y2="255.998" gradientUnits="userSpaceOnUse">
<stop stop-color="#FBA52C"/>
<stop offset="1" stop-color="#EF335D"/>
</linearGradient>
<linearGradient id="paint5_linear_7107_12716" x1="7.19093" y1="255.998" x2="505.079" y2="255.998" gradientUnits="userSpaceOnUse">
<stop stop-color="#FBA52C"/>
<stop offset="1" stop-color="#EF335D"/>
</linearGradient>
<clipPath id="clip0_7107_12716">
<rect width="512" height="512" fill="white"/>
</clipPath>
</defs>
</svg>
